#!OML:ASF H:\SpeedWalk\Project 1\Capture day 2\Session 1\male.ASF
:FULLY-SPECIFIED
:DEGREES
112
root -8.366312 17.755109 -14.762593 -2.331437 -4.818420 -6.849101
lowerback 14.096422 2.977427 7.136820 
upperback 1.967967 5.228729 3.392976 
thorax -5.486998 2.446184 -1.376648 
lowerneck -11.696017 1.040902 1.929846 
upperneck 16.274540 2.011950 -5.239499 
head 6.974063 0.633662 -1.823734 
rclavicle 0.000000 0.000000 
rhumerus -21.187042 -9.202373 -82.454083 
rradius 32.864085 
rwrist -5.981225 
rhand -11.391955 -12.195860 
rfingers 0.000000 
rthumb 14.642840 -41.658815 
lclavicle 0.000000 0.000000 
lhumerus -38.234672 3.040521 88.110056 
lradius 40.654012 
lwrist -11.894561 
lhand -6.795371 15.587378 
lfingers 0.000000 
lthumb 19.067613 44.672769 
rfemur 9.538969 0.606005 31.808397 
rtibia 18.836890 
rfoot -14.450513 -3.937392 
rtoes -5.134695 
lfemur -70.261361 3.802829 -13.405336 
ltibia 73.366857 
lfoot -12.277209 -6.058692 
ltoes 1.125017 
113
root -8.361706 17.750566 -14.705817 -2.280699 -4.911284 -6.820750
lowerback 14.115203 2.998326 7.101345 
upperback 1.965717 5.251931 3.379022 
thorax -5.499952 2.457519 -1.377079 
lowerneck -11.692881 1.058422 1.936687 
upperneck 16.205531 2.034594 -5.257146 
head 6.952421 0.644277 -1.827943 
rclavicle 0.000000 0.000000 
rhumerus -21.146974 -9.032013 -82.492250 
rradius 32.938402 
rwrist -6.076635 
rhand -11.247464 -12.252322 
rfingers 0.000000 
rthumb 14.782057 -41.705089 
lclavicle 0.000000 0.000000 
lhumerus -38.261994 3.052833 88.106797 
lradius 40.580696 
lwrist -11.946057 
lhand -6.755066 15.588792 
lfingers 0.000000 
lthumb 19.106383 44.670340 
rfemur 9.581546 0.657278 31.727817 
rtibia 19.036216 
rfoot -14.483346 -3.811974 
rtoes -5.436422 
lfemur -70.311211 3.879988 -13.469987 
ltibia 73.761482 
lfoot -12.005302 -5.751786 
ltoes 1.627692 
114
root -8.357042 17.746026 -14.648933 -2.230466 -5.004148 -6.790999
lowerback 14.135573 3.019269 7.063766 
upperback 1.963663 5.274996 3.364860 
thorax -5.513761 2.468799 -1.376655 
lowerneck -11.691268 1.075762 1.941919 
upperneck 16.135084 2.056963 -5.273446 
head 6.930561 0.654777 -1.831466 
rclavicle 0.000000 0.000000 
rhumerus -21.108058 -8.863123 -82.529213 
rradius 33.013390 
rwrist -6.169162 
rhand -11.103132 -12.308425 
rfingers 0.000000 
rthumb 14.921127 -41.750964 
lclavicle 0.000000 0.000000 
lhumerus -38.289494 3.065123 88.103487 
lradius 40.506897 
lwrist -11.999826 
lhand -6.714262 15.592484 
lfingers 0.000000 
lthumb 19.145638 44.670127 
rfemur 9.622867 0.711000 31.646505 
rtibia 19.239239 
rfoot -14.514750 -3.690389 
rtoes -5.738190 
lfemur -70.367696 3.960578 -13.539798 
ltibia 74.190869 
lfoot -11.776646 -5.445295 
ltoes 2.135199 
115
root -8.352255 17.741487 -14.591657 -2.181077 -5.097093 -6.758681
lowerback 14.159191 3.040479 7.023235 
upperback 1.961821 5.298177 3.349721 
thorax -5.529315 2.480125 -1.375880 
lowerneck -11.691976 1.092792 1.945982 
upperneck 16.061450 2.078676 -5.288282 
head 6.908049 0.665031 -1.834360 
rclavicle 0.000000 0.000000 
rhumerus -21.069855 -8.698589 -82.564963 
rradius 33.087441 
rwrist -6.256854 
rhand -10.964336 -12.362435 
rfingers 0.000000 
rthumb 15.054849 -41.795039 
lclavicle 0.000000 0.000000 
lhumerus -38.317869 3.076037 88.099396 
lradius 40.431490 
lwrist -12.061637 
lhand -6.674001 15.593503 
lfingers 0.000000 
lthumb 19.184353 44.667298 
rfemur 9.662842 0.769028 31.563853 
rtibia 19.448582 
rfoot -14.542442 -3.576173 
rtoes -6.038974 
lfemur -70.428982 4.042597 -13.613717 
ltibia 74.658624 
lfoot -11.624195 -5.150392 
ltoes 2.617164 
116
root -8.347280 17.736952 -14.533791 -2.132954 -5.190163 -6.722509
lowerback 14.187683 3.062088 6.978271 
upperback 1.960298 5.321531 3.333113 
thorax -5.547489 2.491517 -1.374579 
lowerneck -11.696169 1.109357 1.948288 
upperneck 15.983031 2.099404 -5.300920 
head 6.884557 0.674917 -1.836311 
rclavicle 0.000000 0.000000 
rhumerus -21.032720 -8.540595 -82.598889 
rradius 33.160085 
rwrist -6.337284 
rhand -10.833851 -12.413303 
rfingers 0.000000 
rthumb 15.180542 -41.836409 
lclavicle 0.000000 0.000000 
lhumerus -38.347560 3.084884 88.094134 
lradius 40.353669 
lwrist -12.135521 
lhand -6.634556 15.590508 
lfingers 0.000000 
lthumb 19.222258 44.660538 
rfemur 9.700794 0.833522 31.479188 
rtibia 19.667411 
rfoot -14.564560 -3.473022 
rtoes -6.338281 
lfemur -70.497476 4.126762 -13.693804 
ltibia 75.183986 
lfoot -11.586162 -4.872887 
ltoes 3.060778 
117
root -8.342290 17.732443 -14.475847 -2.084712 -5.283336 -6.685910
lowerback 14.216565 3.083813 6.932772 
upperback 1.958759 5.344979 3.316345 
thorax -5.565924 2.502956 -1.373199 
lowerneck -11.700611 1.125920 1.950352 
upperneck 15.903944 2.120087 -5.313269 
head 6.860890 0.684797 -1.838128 
rclavicle 0.000000 0.000000 
rhumerus -20.995862 -8.383083 -82.632656 
rradius 33.232870 
rwrist -6.417167 
rhand -10.704661 -12.463959 
rfingers 0.000000 
rthumb 15.304988 -41.877654 
lclavicle 0.000000 0.000000 
lhumerus -38.377270 3.093565 88.088730 
lradius 40.275609 
lwrist -12.210758 
lhand -6.594918 15.586638 
lfingers 0.000000 
lthumb 19.260351 44.652881 
rfemur 9.738389 0.898833 31.394320 
rtibia 19.886995 
rfoot -14.585759 -3.371147 
rtoes -6.638151 
lfemur -70.565816 4.210558 -13.773832 
ltibia 75.711562 
lfoot -11.557688 -4.598069 
ltoes 3.497578 
118
root -8.337059 17.728325 -14.416730 -2.034694 -5.378069 -6.642907
lowerback 14.251289 3.107283 6.879229 
upperback 1.956977 5.369828 3.297180 
thorax -5.588289 2.515081 -1.370611 
lowerneck -11.708804 1.142446 1.948778 
upperneck 15.814814 2.140084 -5.321267 
head 6.834576 0.694594 -1.837942 
rclavicle 0.000000 0.000000 
rhumerus -20.963176 -8.232820 -82.664043 
rradius 33.307780 
rwrist -6.488831 
rhand -10.594939 -12.511429 
rfingers 0.000000 
rthumb 15.410678 -41.917017 
lclavicle 0.000000 0.000000 
lhumerus -38.407269 3.099738 88.081187 
lradius 40.193935 
lwrist -12.306348 
lhand -6.552373 15.569601 
lfingers 0.000000 
lthumb 19.301274 44.631726 
rfemur 9.770612 0.976438 31.306404 
rtibia 20.117927 
rfoot -14.593129 -3.288476 
rtoes -6.946508 
lfemur -70.631839 4.288820 -13.852948 
ltibia 76.272439 
lfoot -11.673002 -4.363669 
ltoes 3.831876 
119
root -8.331827 17.724207 -14.357612 -1.984676 -5.472803 -6.599903
lowerback 14.286013 3.130754 6.825686 
upperback 1.955195 5.394677 3.278014 
thorax -5.610654 2.527206 -1.368023 
lowerneck -11.716997 1.158971 1.947205 
upperneck 15.725684 2.160082 -5.329265 
head 6.808261 0.704391 -1.837756 
rclavicle 0.000000 0.000000 
rhumerus -20.930489 -8.082556 -82.695429 
rradius 33.382691 
rwrist -6.560495 
rhand -10.485217 -12.558898 
rfingers 0.000000 
rthumb 15.516368 -41.956379 
lclavicle 0.000000 0.000000 
lhumerus -38.437268 3.105911 88.073644 
lradius 40.112262 
lwrist -12.401937 
lhand -6.509828 15.552564 
lfingers 0.000000 
lthumb 19.342198 44.610571 
rfemur 9.802834 1.054043 31.218487 
rtibia 20.348858 
rfoot -14.600499 -3.205805 
rtoes -7.254865 
lfemur -70.697863 4.367082 -13.932063 
ltibia 76.833317 
lfoot -11.788316 -4.129269 
ltoes 4.166175 
